<?xml version="1.0" encoding="UTF-8" standalone="no"?>
<!-- Created with Inkscape (http://www.inkscape.org/) -->

<svg
   width="72.993759mm"
   height="83.312851mm"
   viewBox="0 0 72.993759 83.312851"
   version="1.1"
   id="svg6808"
   sodipodi:docname="observatory-logo-blue.svg"
   inkscape:version="1.2.2 (b0a84865, 2022-12-01)"
   xmlns:inkscape="http://www.inkscape.org/namespaces/inkscape"
   xmlns:sodipodi="http://sodipodi.sourceforge.net/DTD/sodipodi-0.dtd"
   xmlns="http://www.w3.org/2000/svg"
   xmlns:svg="http://www.w3.org/2000/svg">
  <sodipodi:namedview
     id="namedview6810"
     pagecolor="#ffffff"
     bordercolor="#000000"
     borderopacity="0.25"
     inkscape:showpageshadow="2"
     inkscape:pageopacity="0.0"
     inkscape:pagecheckerboard="0"
     inkscape:deskcolor="#d1d1d1"
     inkscape:document-units="mm"
     showgrid="false"
     inkscape:zoom="0.76263505"
     inkscape:cx="11.145567"
     inkscape:cy="213.73264"
     inkscape:window-width="1512"
     inkscape:window-height="916"
     inkscape:window-x="199"
     inkscape:window-y="1118"
     inkscape:window-maximized="1"
     inkscape:current-layer="layer1" />
  <defs
     id="defs6805" />
  <g
     inkscape:label="Layer 1"
     inkscape:groupmode="layer"
     id="layer1"
     transform="translate(-66.908974,-30.437032)">
    <path
       style="fill:#2c5aa0;fill-opacity:1;stroke-width:0.187202"
       d="m 99.136957,65.309666 -8.761903,-5.43364 c -0.16047,0.17203 -10.24329,18.46707 -10.24217,18.57209 0.002,0.13755 9.4026,4.770078 9.7809,4.766328 2.668623,-8.876068 4.190863,-12.001008 9.223173,-17.904778 z"
       id="path3334-7-94-2-5-8"
       sodipodi:nodetypes="ccccc" />
    <path
       style="fill:#2c5aa0;fill-opacity:1;stroke-width:0.187202"
       d="m 89.504274,56.823886 -9.10095,-5.69209 c -0.0838,0.0647 -13.347216,22.48405 -13.212569,22.54167 l 9.799969,5.08709 z"
       id="path3336-4-9-6-3-5"
       sodipodi:nodetypes="ccscc" />
    <path
       style="fill:#2c5aa0;fill-opacity:1;stroke:none;stroke-width:0;stroke-dasharray:none"
       d="m 72.104812,61.086956 c 2.257912,-4.05915 4.148592,-7.11478 4.144382,-7.18788 -0.003,-0.073 -0.0486,-0.12996 -0.0986,-0.12636 -4.914132,1.48659 -7.895075,7.28829 -8.427784,11.16021 -0.182387,1.50989 -0.03853,3.6616 0.243453,3.64118 0.04224,-0.002 1.977276,-3.46406 4.13851,-7.48715 z"
       id="path3338-8-1-9-7-3"
       sodipodi:nodetypes="csccccc" />
    <g
       id="g10391-5-5-5-1"
       transform="matrix(0.50367676,0,0,0.50367676,28.743745,46.852046)"
       style="fill:#2c5aa0">
      <path
         style="fill:#2c5aa0;fill-opacity:1;stroke-width:0.33218"
         d="m 91.221448,132.33906 c -7.84923,-1.90173 -13.77681,-8.39682 -15.11038,-16.55703 -0.45277,-2.77048 -0.45165,-3.39651 0.0109,-6.13975 0.96037,-5.69569 3.99863,-10.459078 8.6596,-13.576528 3.37083,-2.25455 5.91712,-3.09491 10.02281,-3.30788 4.97873,-0.25824 8.533372,0.69802 12.580572,3.3844 l 1.93867,1.28681 5.3068,-2.63097 c 2.91873,-1.44704 5.36936,-2.72986 5.44584,-2.85073 0.0765,-0.12086 -0.22448,-1.57813 -0.66879,-3.23836 -1.87464,-7.00492 -2.02234,-16.17828 -0.37671,-23.39702 0.49334,-2.1641 1.00763,-3.656255 0.94889,-3.703865 2.5396,-7.488299 2.31319,-7.441532 7.11481,-14.124635 l 1.57337,-2.00266 c 6.56719,-8.35898 16.96201,-14.99487 27.76551,-17.72509 l 3.14239,-0.79413 0.0895,-6.961125 0.0895,-6.961126 -1.82916,-0.69998 c -3.808,-1.457246 -7.48761,-4.3630666 -10.02163,-7.9141696 -9.64862,-13.521337 -2.78063,-32.2777164 13.30278,-36.3296854 5.34622,-1.346898 10.91372,-0.702458 16.11577,1.865405 2.55265,1.260055 3.62619,2.043557 5.81315,4.24261 3.00017,3.016767 4.4945,5.328049 5.71635,8.841485 4.11533,11.8336094 -1.73291,24.6724504 -13.39731,29.411608 l -1.92739,0.783085 -0.09,6.478485 -0.09,6.478485 1.25264,0.188127 c 7.89303,1.185396 12.63207,2.578726 18.19382,5.349196 4.89969,2.44067 9.25192,5.59386 13.27741,9.61948 15.12297,15.12342 18.92437,37.81944 9.49068,56.66354 -6.98701,13.956788 -19.44126,23.537328 -35.39092,27.224768 -4.70218,1.0871 -14.34264,1.26561 -19.62622,0.3634 -7.81545,-1.33454 -15.44944,-4.48082 -21.70724,-8.94644 -3.8339,-2.73591 -8.81714,-7.64619 -11.46873,-11.30082 -1.08826,-1.49993 -2.09925,-2.72714 -2.24664,-2.72714 -0.14739,0 -2.37391,1.05497 -4.94782,2.34438 -4.23456,2.12132 -4.65993,2.41367 -4.47065,3.07266 0.11504,0.40056 0.29455,1.99887 0.3989,3.55181 0.39149,5.82633 -1.60915,11.0565 -5.84625,15.28359 -2.88165,2.87482 -5.45914,4.3691 -9.17607,5.31973 -3.001952,0.76777 -7.022432,0.82326 -9.858712,0.13608 z m 9.573182,-9.24321 c 7.16842,-3.28182 8.83463,-12.79577 3.22363,-18.40677 -5.590602,-5.590598 -15.098202,-3.76431 -18.471372,3.54813 -1.00482,2.17828 -0.98709,6.84692 0.0345,9.08249 1.41357,3.09337 4.59371,5.71116 7.97223,6.56249 1.93771,0.48828 5.24026,0.12963 7.241022,-0.78634 z m 72.87812,-19.21937 c 0.51384,-1.14187 1.26636,-2.99518 1.67226,-4.118468 0.7156,-1.98036 0.79397,-2.06376 2.58226,-2.7481 l 1.84425,-0.70575 3.75496,1.50242 c 2.06523,0.82633 3.9232,1.50243 4.12884,1.50243 0.20563,0 1.48488,-0.99829 2.84276,-2.21841 2.82401,-2.53751 2.77618,-1.99016 0.60215,-6.89094 -0.80422,-1.81292 -1.46222,-3.4295 -1.46222,-3.5924 0,-0.16291 0.31053,-1.01806 0.69007,-1.90033 0.59647,-1.38651 0.90064,-1.68275 2.24222,-2.1837 0.85367,-0.31876 2.71061,-1.10285 4.12653,-1.74243 l 2.57439,-1.16286 v -3.41641 -3.41641 l -4.0692,-1.58182 c -2.23806,-0.86999 -4.17989,-1.74087 -4.31517,-1.93529 -0.13527,-0.1944 -0.48842,-0.97962 -0.78477,-1.74491 l -0.53881,-1.39145 1.5558,-3.84421 c 0.85569,-2.11431 1.5078,-4.03786 1.44913,-4.27454 -0.0587,-0.23669 -1.17523,-1.43461 -2.48126,-2.66206 l -2.3746,-2.23173 -1.77765,0.69899 c -0.97771,0.38445 -2.8008,1.14726 -4.05132,1.69516 l -2.27366,0.99616 -1.76631,-0.71689 c -1.36757,-0.55505 -1.85941,-0.95457 -2.17874,-1.76976 -0.22684,-0.57908 -1.00908,-2.36083 -1.73831,-3.95944 l -1.32588,-2.90658 h -3.56638 -3.56638 l -1.1636,2.74049 c -0.63998,1.50727 -1.35401,3.28332 -1.58672,3.94679 -0.35231,1.0044 -0.72072,1.32965 -2.20107,1.94322 l -1.77793,0.73691 -3.81831,-1.52799 c -2.10008,-0.8404 -3.98205,-1.528 -4.18218,-1.528 -0.4879,0 -5.27982,4.30667 -5.27982,4.74517 0,0.18997 0.75858,2.0554 1.68574,4.14539 l 1.68574,3.79999 -0.70137,1.72805 -0.70136,1.72806 -4.05704,1.65549 -4.05704,1.6555 -0.0939,3.52285 -0.0939,3.52285 2.41918,0.99782 c 1.33055,0.5488 3.20031,1.27124 4.15502,1.60543 1.60735,0.56262 1.78864,0.73768 2.4491,2.36494 l 0.71325,1.75734 -1.5356,3.68638 c -0.84458,2.02751 -1.5356,3.94379 -1.5356,4.2584 0,0.31461 1.04328,1.57922 2.3184,2.81025 2.64821,2.556628 2.03573,2.52929 7.21619,0.32207 l 3.38927,-1.44406 1.77884,0.68072 1.77884,0.68072 1.45745,3.485078 c 2.12116,5.07212 1.76864,4.776 5.68545,4.776 h 3.32379 z m -7.55144,-18.816078 c -2.33106,-0.80516 -3.92604,-2.14771 -5.18183,-4.36174 -0.90062,-1.58784 -1.03158,-2.13499 -1.03158,-4.31007 0,-2.17235 0.13195,-2.72528 1.03052,-4.31834 3.68539,-6.53381 12.98521,-6.50094 16.58205,0.0586 0.82572,1.50586 0.97049,2.13831 0.97522,4.26027 0.005,2.17487 -0.125,2.72426 -1.0206,4.31834 -1.23055,2.19029 -3.19883,3.78678 -5.51757,4.47537 -2.21105,0.65662 -3.66931,0.62602 -5.83621,-0.12244 z m 4.09414,-81.6018606 c 8.25004,-2.148862 12.27225,-11.925557 7.94446,-19.3103824 -2.03144,-3.466391 -5.42381,-5.747413 -9.52107,-6.401954 -5.422,-0.866167 -11.10714,2.119293 -13.57265,7.127449 -5.00403,10.1646294 4.1871,21.4401664 15.14926,18.5848874 z"
         id="path10393-2-5-8-9"
         sodipodi:nodetypes="sssssscssssccsscccssssssscccsssssssssssssssssssssssssscsssssssscccssscssscsscssscccssscsssscccccccssscsssscccsscssssssssssssssss" />
    </g>
  </g>
</svg>
